<?xml version="1.0" encoding="UTF-8"?>
<svg width="100px" height="100px" viewBox="0 0 100 100" version="1.1" xmlns="http://www.w3.org/2000/svg" xmlns:xlink="http://www.w3.org/1999/xlink">
    <!-- Generator: Sketch 55.1 (78136) - https://sketchapp.com -->
    <title>noun_service_1118694@1.5x</title>
    <desc>Created with Sketch.</desc>
    <g id="Page-1" stroke="none" stroke-width="1" fill="none" fill-rule="evenodd">
        <g id="Chat-Home-Page-Copy" transform="translate(-722.000000, -321.000000)" fill="#B3B3B3" fill-rule="nonzero">
            <g id="noun_service_1118694" transform="translate(722.000000, 321.000000)">
                <g id="Group">
                    <path d="M57.8951613,50 C58.9403226,47.7306452 59.5548387,45.2290323 59.6451613,42.5919355 C63.8193548,38.183871 66.1290323,32.4548387 66.1290323,26.3596774 L66.1290323,19.3548387 C66.1290323,15.2709677 63.0758065,11.883871 59.1322581,11.3612903 C55.7483871,4.42741935 48.716129,0 40.9419355,0 L38.2274194,0 C32.9822581,0 27.8112903,1.77419355 23.6693548,4.99516129 C17.8516129,9.51935484 14.516129,16.3419355 14.516129,23.7112903 L14.516129,26.3596774 C14.516129,32.4548387 16.8258065,38.183871 21.0016129,42.5919355 C21.2112903,48.7774194 24.3258065,54.2274194 29.0322581,57.6241935 L29.0322581,61.6096774 L16.4193548,64.4112903 C6.7516129,66.5612903 0,74.9758065 0,84.8806452 L0,100 L54.8387097,100 L56.4516129,100 L100,100 L100,50 L57.8951613,50 Z M74.1935484,53.2258065 L80.6451613,53.2258065 L80.6451613,66.1290323 L74.1935484,66.1290323 L74.1935484,53.2258065 Z M32.2580645,72.4016129 C34.3096774,74.5 37.1645161,75.8064516 40.3225806,75.8064516 C43.4806452,75.8064516 46.3354839,74.5 48.3870968,72.4016129 L48.3870968,90.3225806 L32.2580645,90.3225806 L32.2580645,72.4016129 Z M51.6129032,57.6241935 C52.7967742,56.7709677 53.8774194,55.7887097 54.8387097,54.6951613 L54.8387097,62.3258065 L51.6129032,61.6096774 L51.6129032,57.6241935 Z M17.7419355,23.7112903 C17.7419355,17.3435484 20.6241935,11.4483871 25.65,7.54032258 C29.2290323,4.75806452 33.6967742,3.22580645 38.2274194,3.22580645 L40.9419355,3.22580645 C47.7580645,3.22580645 53.8967742,7.27419355 56.5822581,13.5387097 L57.0016129,14.516129 L58.0645161,14.516129 C60.7322581,14.516129 62.9032258,16.6870968 62.9032258,19.3548387 L62.9032258,26.3596774 C62.9032258,30.3209677 61.7693548,34.1048387 59.6774194,37.3596774 L59.6774194,24.1935484 L56.1419355,24.1935484 L55.5854839,24.416129 C45.2532258,28.5483871 34.3709677,30.6451613 23.2387097,30.6451613 L20.9677419,30.6451613 L20.9677419,37.3596774 C18.8758065,34.1048387 17.7419355,30.3209677 17.7419355,26.3596774 L17.7419355,23.7112903 Z M24.1935484,41.9354839 L24.1935484,33.866129 C35.2854839,33.7516129 46.1322581,31.6241935 56.4516129,27.5419355 L56.4516129,41.9354839 C56.4516129,50.8290323 49.216129,58.0645161 40.3225806,58.0645161 C31.4290323,58.0645161 24.1935484,50.8290323 24.1935484,41.9354839 Z M40.3225806,61.2903226 C43.2032258,61.2903226 45.9290323,60.6403226 48.3870968,59.5080645 L48.3870968,62.9032258 L48.3870968,64.1967742 L48.3870968,64.516129 C48.3870968,68.9629032 44.7693548,72.5806452 40.3225806,72.5806452 C35.8758065,72.5806452 32.2580645,68.9629032 32.2580645,64.516129 L32.2580645,64.1967742 L32.2580645,62.9032258 L32.2580645,59.5080645 C34.716129,60.6403226 37.4419355,61.2903226 40.3225806,61.2903226 Z M3.22580645,84.8806452 C3.22580645,76.5016129 8.93870968,69.3790323 17.1177419,67.5629032 L20.9677419,66.7064516 L20.9677419,90.3225806 L19.3548387,90.3225806 L17.7419355,90.3225806 L16.1290323,90.3225806 L16.1290323,96.7741935 L3.22580645,96.7741935 L3.22580645,84.8806452 Z M19.3548387,96.7741935 L19.3548387,93.5483871 L24.1935484,93.5483871 L24.1935484,65.9887097 L29.0322581,64.9129032 L29.0322581,93.5483871 L51.6129032,93.5483871 L51.6129032,64.9129032 L54.8387097,65.6306452 L54.8387097,96.7741935 L19.3548387,96.7741935 Z M96.7741935,96.7741935 L58.0645161,96.7741935 L58.0645161,53.2258065 L70.9677419,53.2258065 L70.9677419,69.3548387 L83.8709677,69.3548387 L83.8709677,53.2258065 L96.7741935,53.2258065 L96.7741935,96.7741935 Z" id="Shape"></path>
                    <rect id="Rectangle" x="90.3225806" y="90.3225806" width="3.22580645" height="3.22580645"></rect>
                    <rect id="Rectangle" x="77.4193548" y="90.3225806" width="9.67741935" height="3.22580645"></rect>
                    <rect id="Rectangle" x="77.4193548" y="83.8709677" width="16.1290323" height="3.22580645"></rect>
                </g>
            </g>
        </g>
    </g>
</svg>