<?xml version="1.0" encoding="UTF-8"?>
<svg width="109px" height="89px" viewBox="0 0 109 89" version="1.1" xmlns="http://www.w3.org/2000/svg" xmlns:xlink="http://www.w3.org/1999/xlink">
    <!-- Generator: Sketch 55.1 (78136) - https://sketchapp.com -->
    <title>noun_Apps_654024@1.5x</title>
    <desc>Created with Sketch.</desc>
    <g id="Page-1" stroke="none" stroke-width="1" fill="none" fill-rule="evenodd">
        <g id="Chat-Home-Page-Copy" transform="translate(-274.000000, -327.000000)" fill="#B3B3B3" fill-rule="nonzero">
            <g id="noun_Apps_654024" transform="translate(274.000000, 327.000000)">
                <path d="M108.9225,70.9218599 C108.585128,69.3400226 108.585128,66.8542783 108.585128,64.0295689 C108.585128,54.7645221 108.697586,40.7539635 98.1265947,23.9186955 C98.1265947,23.9186955 98.1265947,23.9186955 98.1265947,23.9186955 L91.7165256,13.7497417 C90.5919521,11.9419277 88.7926345,10.6990555 86.7684022,10.247102 C84.7441698,9.79514854 82.6074802,10.1341137 80.8081625,11.2639974 C80.8081625,11.2639974 80.6957052,11.2639974 80.6957052,11.3769858 C79.683589,12.0549161 78.7839302,12.9588231 78.2216435,14.0887068 C77.3219847,13.4107766 76.1974111,12.8458347 75.0728376,12.6198579 C72.936148,12.1679044 70.7994583,12.5068696 69.0001407,13.7497417 C68.8876833,13.7497417 68.8876833,13.8627301 68.775226,13.8627301 C67.4257377,14.7666371 66.4136216,16.0095092 65.8513348,17.5913465 C63.6021878,16.5744511 60.790754,16.6874395 58.541607,17.9303116 C58.4291496,17.9303116 58.3166923,18.0433 58.2042349,18.0433 C57.1921188,18.7212302 56.4049173,19.5121489 55.7301732,20.5290442 L45.2716395,4.03274137 C44.0346087,2.11193898 42.1228337,0.643090093 39.7612293,0.19113659 C37.5120823,-0.260816914 35.1504779,0.078148214 33.2387029,1.32102035 C33.2387029,1.32102035 33.1262456,1.32102035 33.1262456,1.43400872 C33.1262456,1.43400872 33.0137882,1.43400872 33.0137882,1.43400872 C31.1020133,2.67688086 29.6400677,4.59768325 29.1902383,6.97043914 C28.7404089,9.23020666 29.0777809,11.6029625 30.3148118,13.5237649 L47.7457013,40.9799403 C46.8460424,41.4318938 46.058841,41.9968357 45.2716395,42.5617775 C44.8218101,42.7877543 44.4844381,43.1267194 44.0346087,43.3526962 C44.0346087,43.3526962 44.0346087,43.3526962 44.0346087,43.3526962 C42.0103763,44.7085567 40.5484308,46.7423474 39.986144,49.1151033 C39.4238573,51.4878592 39.8736867,53.9736035 41.2231749,56.1203826 L47.2958718,65.7243946 C47.4083292,65.837383 47.5207866,66.0633597 47.6332439,66.1763481 C54.9429717,76.4582903 64.0520172,79.0570229 70.1247142,80.8648369 C71.8115744,81.3167904 73.27352,81.7687439 74.3980935,82.2206974 C74.6230082,82.3336858 74.7354656,82.3336858 74.9603803,82.3336858 C74.9603803,82.3336858 74.9603803,82.3336858 74.9603803,82.3336858 C77.7718141,83.0116161 78.6714729,84.3674766 80.2458758,86.9662092 L80.8081625,87.8701162 C81.257992,88.5480465 82.0451934,89 82.8323949,89 C83.2822243,89 83.7320537,88.8870116 84.0694257,88.6610349 C85.1939993,87.9831046 85.5313713,86.5142557 84.8566272,85.384372 L84.2943404,84.5934533 C82.6074802,81.7687439 80.8081625,78.8310462 76.0849538,77.8141508 C76.0849538,77.8141508 76.0849538,77.8141508 76.0849538,77.8141508 C74.7354656,77.2492089 73.27352,76.7972554 71.5866597,76.3453019 C65.4015054,74.5374879 56.9672041,72.0517436 50.3322203,61.656813 L50.3322203,61.656813 L45.2716395,53.6346384 C44.5968954,52.617743 44.3719807,51.4878592 44.7093528,50.2449871 C45.0467248,49.002115 45.6090116,48.0982079 46.6211277,47.4202777 C46.6211277,47.4202777 46.6211277,47.4202777 46.6211277,47.4202777 C47.0709571,47.0813126 47.5207866,46.8553358 47.970616,46.5163707 C48.7578174,45.9514288 49.9948483,45.1605102 50.3322203,45.0475218 C50.3322203,45.0475218 50.4446777,45.1605102 50.7820497,45.6124637 L57.8668629,56.7983129 C58.3166923,57.4762431 59.1038937,57.9281966 59.8910952,57.9281966 C60.3409246,57.9281966 60.790754,57.8152083 61.1281261,57.5892315 C62.2526996,56.9113013 62.5900716,55.4424524 61.8028702,54.3125686 L54.718057,43.1267194 C54.718057,43.1267194 54.718057,43.1267194 54.718057,43.1267194 C54.718057,43.1267194 54.718057,43.1267194 54.718057,43.1267194 L34.4757338,11.0380207 C33.913447,10.1341137 33.6885323,9.11721828 33.913447,7.98733452 C34.1383617,6.97043914 34.8131059,6.06653213 35.7127647,5.50159025 C35.7127647,5.50159025 35.825222,5.50159025 35.825222,5.38860188 C35.825222,5.38860188 35.9376794,5.38860188 35.9376794,5.38860188 C36.8373382,4.82366 37.8494543,4.59768325 38.9740279,4.82366 C39.986144,5.04963675 40.8858028,5.72756701 41.4480896,6.63147401 L55.8426306,29.3421376 L55.8426306,29.3421376 L55.8426306,29.3421376 L62.5900716,39.9630449 C63.039901,40.6409751 63.8271025,41.0929286 64.614304,41.0929286 C65.0641334,41.0929286 65.5139628,40.9799403 65.8513348,40.7539635 C66.9759083,40.0760333 67.3132804,38.6071844 66.5260789,37.4773006 L59.7786378,26.8563933 C58.7665217,25.274556 59.2163511,23.2407653 60.790754,22.2238699 C60.790754,22.2238699 60.790754,22.2238699 60.790754,22.2238699 C62.3651569,21.2069745 64.3893893,21.658928 65.4015054,23.2407653 L72.1489465,33.8616726 C72.5987759,34.5396028 73.3859774,34.9915563 74.1731788,34.9915563 C74.6230082,34.9915563 75.0728376,34.878568 75.4102097,34.6525912 C76.5347832,33.974661 76.8721553,32.5058121 76.0849538,31.3759283 L70.4620862,22.562835 C70.4620862,22.562835 70.4620862,22.562835 70.4620862,22.562835 C70.0122568,21.7719164 69.7873421,20.8680094 70.0122568,19.9641024 C70.2371715,19.0601954 70.6870009,18.3822651 71.4742024,17.8173232 C71.4742024,17.8173232 71.4742024,17.8173232 71.4742024,17.8173232 C72.2614038,17.3653697 73.1610627,17.139393 74.0607215,17.3653697 C74.9603803,17.5913465 75.6351244,18.0433 76.1974111,18.8342186 L78.4465582,22.3368583 C78.4465582,22.3368583 78.4465582,22.3368583 78.4465582,22.3368583 C78.4465582,22.3368583 78.4465582,22.3368583 78.4465582,22.3368583 L82.9448522,29.4551259 C83.3946816,30.1330562 84.1818831,30.5850097 84.9690845,30.5850097 C85.418914,30.5850097 85.8687434,30.4720213 86.2061154,30.2460446 C87.3306889,29.5681143 87.668061,28.0992654 86.8808595,26.9693817 L82.3825655,19.851114 L82.3825655,19.851114 C81.9327361,19.1731837 81.8202787,18.2692767 81.9327361,17.4783581 C82.1576508,16.6874395 82.6074802,16.0095092 83.2822243,15.5575557 C83.2822243,15.5575557 83.2822243,15.5575557 83.2822243,15.5575557 C83.9569684,15.1056022 84.8566272,14.9926138 85.6438287,15.1056022 C86.4310301,15.331579 87.1057742,15.7835325 87.5556036,16.4614627 L93.9656727,26.6304165 C103.86192,42.2228124 103.749462,55.4424524 103.749462,64.1425573 C103.749462,67.5322086 103.749462,70.1309412 104.199292,72.2777204 C104.424206,73.4076041 105.436322,74.0855344 106.448439,74.0855344 C106.673353,74.0855344 106.785811,74.0855344 107.010725,73.972546 C108.472671,73.5205925 109.259872,72.2777204 108.9225,70.9218599 Z" id="Path"></path>
                <path d="M24.8660714,17 C26.6071429,17 28,18.3211009 28,19.9724771 L28,26.0275229 C28,27.6788991 26.6071429,29 24.8660714,29 L18.1339286,29 C16.3928571,29 15,27.6788991 15,26.0275229 L15,19.9724771 C15,18.3211009 16.3928571,17 18.1339286,17 L24.8660714,17 L24.8660714,17 Z" id="Path"></path>
                <path d="M9.86607143,17.1100917 C11.6071429,17.1100917 13,18.4311927 13,20.0825688 L13,26.0275229 C13,27.6788991 11.6071429,29 9.86607143,29 L3.13392857,29 C1.39285714,29 0,27.6788991 0,26.0275229 L0,19.9724771 C0,18.3211009 1.39285714,17 3.13392857,17 L9.86607143,17 L9.86607143,17.1100917 Z" id="Path"></path>
                <path d="M24.8660714,32 C26.6071429,32 28,33.3211009 28,34.9724771 L28,41.0275229 C28,42.6788991 26.6071429,44 24.8660714,44 L18.1339286,44 C16.3928571,44 15,42.6788991 15,41.0275229 L15,34.9724771 C15,33.3211009 16.3928571,32 18.1339286,32 L24.8660714,32 Z" id="Path"></path>
                <path d="M9.86607143,32 C11.6071429,32 13,33.3211009 13,34.9724771 L13,41.0275229 C13,42.6788991 11.6071429,44 9.86607143,44 L3.13392857,44 C1.39285714,44 0,42.6788991 0,41.0275229 L0,34.9724771 C0,33.3211009 1.39285714,32 3.13392857,32 L9.86607143,32 Z" id="Path"></path>
            </g>
        </g>
    </g>
</svg>