<?xml version="1.0" encoding="UTF-8"?>
<svg width="84px" height="85px" viewBox="0 0 84 85" version="1.1" xmlns="http://www.w3.org/2000/svg" xmlns:xlink="http://www.w3.org/1999/xlink">
    <!-- Generator: Sketch 55.1 (78136) - https://sketchapp.com -->
    <title>noun_Info_1580327@1.5x</title>
    <desc>Created with Sketch.</desc>
    <g id="Page-1" stroke="none" stroke-width="1" fill="none" fill-rule="evenodd">
        <g id="Chat-Home-Page-Copy" transform="translate(-1165.000000, -698.000000)" fill="#B3B3B3" fill-rule="nonzero">
            <g id="noun_Info_1580327" transform="translate(1165.000000, 698.000000)">
                <g id="Group">
                    <path d="M42,0.3383 C18.8372044,0.3383 0,19.1903286 0,42.371267 C0,65.5522615 18.8372044,84.4042341 42,84.4042341 C65.1627965,84.4042341 84,65.5522615 84,42.371267 C84,19.1903286 65.1627965,0.3383 42,0.3383 Z M42,5.9426956 C62.1363288,5.9426956 78.4,22.2191681 78.4,42.371267 C78.4,62.5234593 62.1363288,78.7998385 42,78.7998385 C21.8636721,78.7998385 5.6,62.5234593 5.6,42.371267 C5.6,22.2191681 21.8636721,5.9426956 42,5.9426956 Z M41.0666667,22.7558824 C39.0048036,22.7558824 37.3333333,24.4286665 37.3333333,26.4921462 C37.3333333,28.5556258 39.0048036,30.2284099 41.0666667,30.2284099 C43.1285297,30.2284099 44.8,28.5556258 44.8,26.4921462 C44.8,24.4286665 43.1285297,22.7558824 41.0666667,22.7558824 Z M37.0416667,32.0965418 C36.0411981,32.148516 35.1444548,32.7307646 34.6892995,33.6239158 C34.2341443,34.5170669 34.2897429,35.5853969 34.8351475,36.4263946 C35.3805521,37.2673924 36.3328829,37.7532594 37.3333333,37.7009374 L39.2,37.7009374 L39.2,56.382256 L37.3333333,56.382256 C37.2361771,56.3771855 37.1388229,56.3771855 37.0416667,56.382256 C36.0411981,56.4342303 35.1444548,57.0164789 34.6892995,57.90963 C34.2341443,58.8027812 34.2897429,59.8711112 34.8351475,60.7121089 C35.3805521,61.5531067 36.3328829,62.0389737 37.3333333,61.9866516 L46.6666667,61.9866516 C47.6764472,62.0009437 48.6156945,61.4699956 49.1247523,60.5971178 C49.6338101,59.7242401 49.6338101,58.6446676 49.1247523,57.7717899 C48.6156945,56.8989121 47.6764472,56.367964 46.6666667,56.382256 L44.8,56.382256 L44.8,34.8987396 C44.7998454,33.3511925 43.5463333,32.0966965 42,32.0965418 L37.3333333,32.0965418 C37.2361771,32.0914712 37.1388229,32.0914712 37.0416667,32.0965418 Z" id="Shape"></path>
                </g>
            </g>
        </g>
    </g>
</svg>