<?xml version="1.0" encoding="UTF-8"?>
<svg width="112px" height="85px" viewBox="0 0 112 85" version="1.1" xmlns="http://www.w3.org/2000/svg" xmlns:xlink="http://www.w3.org/1999/xlink">
    <!-- Generator: Sketch 55.1 (78136) - https://sketchapp.com -->
    <title>noun_notification_2528938@1.5x</title>
    <desc>Created with Sketch.</desc>
    <g id="Page-1" stroke="none" stroke-width="1" fill="none" fill-rule="evenodd">
        <g id="Chat-Home-Page-Copy" transform="translate(-1150.000000, -329.000000)" fill="#B3B3B3" fill-rule="nonzero">
            <g id="noun_notification_2528938" transform="translate(1150.000000, 329.000000)">
                <path d="M82.1911504,57.9971014 C82.0548673,57.8615942 81.9681416,57.6644928 81.9681416,57.4673913 L81.9681416,33.8275362 C81.9681416,30.0722861 81.1570014,26.5017431 79.6998574,23.2798322 C75.9562949,15.0023907 67.9488982,9.0260345 58.4778761,8.13043478 L58.4778761,2.46376812 C58.4778761,1.10869565 57.3628319,0 56,0 C54.6371681,0 53.5221239,1.10869565 53.5221239,2.46376812 L53.5221239,8.13043478 C40.3646018,9.37463768 30.0318584,20.4246377 30.0318584,33.8275362 L30.0318584,57.4673913 C30.0318584,57.6644928 29.9451327,57.8615942 29.8088496,57.9971014 L23.6017699,64.1688406 C22.5238938,65.2405797 21.9292035,66.6695652 21.9292035,68.1847826 L21.9292035,70.0695652 C21.9292035,73.2108696 24.4938053,75.7608696 27.6530973,75.7608696 L45.0230088,75.7608696 C45.9026549,80.9963768 50.4867257,85 56,85 C61.5132743,85 66.0973451,80.9963768 66.9769912,75.7608696 L84.3469027,75.7608696 C87.5061947,75.7608696 90.0707965,73.2108696 90.0707965,70.0695652 L90.0707965,68.1847826 C90.0707965,66.6695652 89.4761062,65.2405797 88.3982301,64.1688406 L82.1911504,57.9971014 Z M56,80.0724638 C53.2371681,80.0724638 50.920354,78.2492754 50.1274336,75.7608696 L61.8725664,75.7608696 C61.079646,78.2492754 58.7628319,80.0724638 56,80.0724638 Z M85.1150442,70.0695652 C85.1150442,70.4884058 84.7681416,70.8333333 84.3469027,70.8333333 L27.6530973,70.8333333 C27.2318584,70.8333333 26.8849558,70.4884058 26.8849558,70.0695652 L26.8849558,68.1847826 C26.8849558,67.9876812 26.959292,67.7905797 27.1079646,67.6550725 L33.3150442,61.4833333 C34.3929204,60.4115942 34.9876106,58.9826087 34.9876106,57.4673913 L34.9876106,33.8275362 C34.9876106,22.3094203 44.4159292,12.9347826 56,12.9347826 C67.5840708,12.9347826 77.0123894,22.3094203 77.0123894,33.8275362 L77.0123894,57.4673913 C77.0123894,58.9826087 77.6070796,60.4115942 78.6849558,61.4833333 L84.8920354,67.6550725 C85.040708,67.7905797 85.1150442,67.9876812 85.1150442,68.1847826 L85.1150442,70.0695652 L85.1150442,70.0695652 Z M22.0654867,55.4594203 C21.5823009,55.9398551 20.9504425,56.1862319 20.3185841,56.1862319 C19.6867257,56.1862319 19.0548673,55.9398551 18.5716814,55.4594203 C14.5946903,51.5050725 12.4017699,46.2449275 12.4017699,40.6521739 C12.4017699,35.0594203 14.5946903,29.7992754 18.5716814,25.8449275 C19.5380531,24.884058 21.1115044,24.884058 22.0778761,25.8449275 C23.0442478,26.8057971 23.0442478,28.3702899 22.0778761,29.3311594 C19.0300885,32.3615942 17.3575221,36.3775362 17.3575221,40.6521739 C17.3575221,44.9268116 19.0300885,48.9550725 22.0778761,51.9731884 C23.0318584,52.934058 23.0318584,54.4985507 22.0654867,55.4594203 Z M13.3061947,60.6826087 C14.2725664,61.6434783 14.2725664,63.207971 13.3061947,64.1688406 C12.8230088,64.6492754 12.1911504,64.8956522 11.559292,64.8956522 C10.9274336,64.8956522 10.2955752,64.6492754 9.81238938,64.1688406 C3.48141593,57.8862319 0,49.534058 0,40.6521739 C0,31.7702899 3.48141593,23.4181159 9.8,17.1355072 C10.7663717,16.1746377 12.339823,16.1746377 13.3061947,17.1355072 C14.2725664,18.0963768 14.2725664,19.6608696 13.3061947,20.6217391 C7.92920354,25.9681159 4.95575221,33.0884058 4.95575221,40.6521739 C4.95575221,48.215942 7.92920354,55.3362319 13.3061947,60.6826087 Z M93.440708,55.4594203 C92.9575221,55.9398551 92.3256637,56.1862319 91.6938053,56.1862319 C91.0619469,56.1862319 90.4300885,55.9398551 89.9469027,55.4594203 C88.980531,54.4985507 88.980531,52.934058 89.9469027,51.9731884 C96.2283186,45.7275362 96.2283186,35.5644928 89.9469027,29.3311594 C88.980531,28.3702899 88.980531,26.8057971 89.9469027,25.8449275 C90.9132743,24.884058 92.4867257,24.884058 93.4530973,25.8449275 C101.654867,34.0123188 101.654867,47.292029 93.440708,55.4594203 Z M112,40.6521739 C112,49.534058 108.518584,57.8862319 102.2,64.1688406 C101.716814,64.6492754 101.084956,64.8956522 100.453097,64.8956522 C99.8212389,64.8956522 99.1893805,64.6492754 98.7061947,64.1688406 C97.739823,63.207971 97.739823,61.6434783 98.7061947,60.6826087 C104.083186,55.3362319 107.056637,48.215942 107.056637,40.6521739 C107.056637,33.0884058 104.095575,25.9681159 98.7061947,20.6217391 C97.739823,19.6608696 97.739823,18.0963768 98.7061947,17.1355072 C99.6725664,16.1746377 101.246018,16.1746377 102.212389,17.1355072 C108.518584,23.4181159 112,31.7702899 112,40.6521739 Z" id="Shape"></path>
            </g>
        </g>
    </g>
</svg>