<?xml version="1.0" encoding="UTF-8"?>
<svg width="74px" height="85px" viewBox="0 0 74 85" version="1.1" xmlns="http://www.w3.org/2000/svg" xmlns:xlink="http://www.w3.org/1999/xlink">
    <!-- Generator: Sketch 55.1 (78136) - https://sketchapp.com -->
    <title>noun_Privacy_1378864@1.5x</title>
    <desc>Created with Sketch.</desc>
    <g id="Page-1" stroke="none" stroke-width="1" fill="none" fill-rule="evenodd">
        <g id="Chat-Home-Page-Copy" transform="translate(-297.000000, -1456.000000)" fill="#C7C7C7" fill-rule="nonzero">
            <g id="noun_Privacy_1378864" transform="translate(297.000000, 1456.000000)">
                <g id="Group-3">
                    <path d="M18.5086047,74.5939394 L35.915814,84.7080808 C36.5835693,85.0948233 37.4078261,85.0948233 38.0755814,84.7080808 L55.4913953,74.5939394 C68.314862,67.1935051 75.3338918,52.7509234 73.2169767,38.1212121 L69.8353488,14.3212121 C69.685101,13.2608902 68.7746055,12.4732733 67.7013953,12.4752525 C55.5172093,12.4752525 46.2413953,8.97222222 38.4972093,1.45959596 C37.661803,0.647081128 36.3295923,0.647081128 35.494186,1.45959596 C27.75,8.97222222 18.474186,12.4752525 6.29,12.4752525 C5.21678987,12.4732733 4.30629435,13.2608902 4.15604651,14.3212121 L0.783023256,38.1212121 C-1.33389176,52.7509234 5.68513799,67.1935051 18.5086047,74.5939394 L18.5086047,74.5939394 Z M5.04232558,38.7222222 L8.16581395,16.7424242 C19.8767442,16.4161616 29.1267442,12.9474747 37,5.94141414 C44.8732558,12.9560606 54.1232558,16.4161616 65.834186,16.7510101 L68.9576744,38.7308081 C70.8279862,51.6243809 64.6474984,64.3561207 53.3488372,70.8848485 L37,80.3292929 L20.6511628,70.8848485 C9.3492787,64.3548848 3.16828027,51.6186931 5.04232558,38.7222222 Z" id="Shape"></path>
                    <path d="M51.774186,42.2767677 L59.7851163,42.2767677 C60.9731707,42.2767677 61.9362791,41.3157627 61.9362791,40.130303 C61.9362791,38.9448433 60.9731707,37.9838384 59.7851163,37.9838384 L53.3488372,37.9838384 L49.21,24.1520202 C48.7853482,22.7373711 47.8045856,21.554654 46.4913926,20.8736085 C45.1781996,20.1925631 43.6445545,20.0712633 42.2402326,20.5373737 L37,22.2545455 L31.7597674,20.5373737 C30.3554455,20.0712633 28.8218004,20.1925631 27.5086074,20.8736085 C26.1954144,21.554654 25.2146518,22.7373711 24.79,24.1520202 L20.6511628,37.9838384 L14.2062791,37.9838384 C13.0182247,37.9838384 12.0551163,38.9448433 12.0551163,40.130303 C12.0551163,41.3157627 13.0182247,42.2767677 14.2062791,42.2767677 L51.774186,42.2767677 Z M28.9030233,25.379798 C28.9939077,25.0777548 29.2033677,24.8252356 29.4837492,24.679691 C29.7641307,24.5341464 30.0915904,24.5079532 30.3916279,24.6070707 L36.3202326,26.6161616 C36.761495,26.7628104 37.238505,26.7628104 37.6797674,26.6161616 L43.5997674,24.65 C43.9009026,24.5481643 44.2306028,24.5729803 44.5130202,24.7187392 C44.7954375,24.8644982 45.0062561,25.1186501 45.0969767,25.4227273 L48.8916279,38.0267677 L25.1169767,38.0267677 L28.9030233,25.379798 Z" id="Shape"></path>
                    <path d="M46.5597674,45.839899 C43.3281954,45.8451875 40.4295329,47.8245099 39.2544186,50.8282828 C37.7845445,50.4035014 36.2240601,50.4035014 34.754186,50.8282828 C33.3334991,47.2104311 29.4688142,45.179401 25.6752623,46.0569837 C21.8817103,46.9345665 19.3069649,50.4552645 19.6266662,54.3278132 C19.9463674,58.2003619 23.0637954,61.2531886 26.9501328,61.4995184 C30.8364702,61.7458483 34.3159729,59.1111585 35.124186,55.310101 C36.2868397,54.6256847 37.7303696,54.6256847 38.8930233,55.310101 C39.7391603,59.3447952 43.5723888,62.0363045 47.664153,61.4687679 C51.7559173,60.9012314 54.7081252,57.2685674 54.4193461,53.1565665 C54.130567,49.0445656 50.6994723,45.8582345 46.5683721,45.8656566 L46.5597674,45.839899 Z M27.4402326,57.2162034 C26.0005588,57.2231141 24.6989257,56.3626606 24.1439557,55.0371352 C23.5889857,53.7116098 23.8903446,52.1829451 24.907122,51.1659199 C25.9238993,50.1488948 27.455173,49.84448 28.7849444,50.3950151 C30.1147158,50.9455502 30.9802133,52.2422457 30.9767546,53.6787879 C30.9720392,55.6271304 29.3928224,57.2067322 27.4402326,57.2162034 Z M46.5597674,57.2161616 C44.5971016,57.2161616 43.0060465,55.6285814 43.0060465,53.670202 C43.0060465,51.7118226 44.5971016,50.1242424 46.5597674,50.1242424 C48.5224333,50.1242424 50.1134884,51.7118226 50.1134884,53.670202 C50.1134884,55.6285814 48.5224333,57.2161616 46.5597674,57.2161616 Z" id="Shape"></path>
                </g>
            </g>
        </g>
    </g>
</svg>