<?xml version="1.0" encoding="UTF-8"?>
<svg width="122px" height="95px" viewBox="0 0 122 95" version="1.1" xmlns="http://www.w3.org/2000/svg" xmlns:xlink="http://www.w3.org/1999/xlink">
    <!-- Generator: Sketch 55.1 (78136) - https://sketchapp.com -->
    <title>noun_Code Management_1857809@1.5x</title>
    <desc>Created with Sketch.</desc>
    <g id="Page-1" stroke="none" stroke-width="1" fill="none" fill-rule="evenodd">
        <g id="Chat-Home-Page-Copy" transform="translate(-271.000000, -688.000000)" fill="#B3B3B3" fill-rule="nonzero">
            <g id="noun_Code-Management_1857809" transform="translate(271.000000, 688.000000)">
                <g id="Group">
                    <path d="M108.29025,8.6184 L13.7307187,8.6184 C12.9415312,8.6184 12.3010312,9.2568 12.3010312,10.0434 C12.9300937,75.0006 10.96475,76.019 13.7307187,76.019 L108.29025,76.019 C109.079437,76.019 109.719937,75.3806 109.719937,74.594 L109.719937,10.0434 C109.719937,9.2568 109.079437,8.6184 108.29025,8.6184 Z M106.860562,73.169 L15.1604062,73.169 L15.1604062,11.4684 L106.860562,11.4684 L106.860562,73.169 Z" id="Shape"></path>
                    <path d="M120.570312,81.0331 L117.62325,81.0331 L117.62325,2.1451 C117.62325,1.3585 116.98275,0.7201 116.193562,0.7201 L5.8064375,0.7201 C5.01725,0.7201 4.37675,1.3585 4.37675,2.1451 L4.37675,81.0331 L1.4296875,81.0331 C0.6405,81.0331 0,81.6715 0,82.4581 C0,88.977 5.32225,94.2818 11.8625938,94.2818 L110.139313,94.2818 C116.679656,94.2818 122,88.977 122,82.4581 C122,81.6715 121.3595,81.0331 120.570312,81.0331 Z M7.236125,3.5701 L114.765781,3.5701 L114.765781,81.0331 L7.236125,81.0331 L7.236125,3.5701 Z M110.139313,91.4299 L11.8625938,91.4299 C7.3848125,91.4299 3.66,88.1543 2.97375,83.8812 C3.5341875,83.8812 126.826625,83.9477 119.028156,83.8812 C118.34,88.1562 114.615188,91.4299 110.139313,91.4299 Z" id="Shape"></path>
                    <path d="M33.5195,47.9636 L38.0964062,48.7559 C38.5825,50.5381 39.2973437,52.2633 40.2295,53.9125 L37.5626562,57.7049 C37.1661562,58.2692 37.2309687,59.0387 37.7189687,59.527 L43.7007812,65.5291 C44.1906875,66.0174 44.9608125,66.0877 45.5307812,65.6944 L49.3795,63.0306 C51.0226875,63.9483 52.7516562,64.6551 54.5378125,65.1396 L55.349875,69.7262 C55.4699687,70.4064 56.0647187,70.9042 56.7585937,70.9042 L65.2356875,70.9042 C65.9295625,70.9042 66.5224062,70.4083 66.6444062,69.7262 L67.4564687,65.1396 C69.2178437,64.6627 70.9449062,63.954 72.6090625,63.0287 L76.440625,65.6925 C77.0086875,66.0858 77.7807187,66.0193 78.2725312,65.5291 L84.2734062,59.527 C84.7633125,59.0387 84.8300312,58.2692 84.431625,57.7049 L81.7609687,53.9068 C82.70075,52.231 83.4155937,50.5058 83.8959687,48.7559 L88.4938437,47.9617 C89.1781875,47.8439 89.6795312,47.2511 89.6795312,46.5576 L89.6795312,38.1083 C89.6795312,37.4186 89.1839062,36.8296 88.503375,36.7061 L83.9093125,35.8777 C83.4117812,34.1069 82.6912187,32.3836 81.7609687,30.7344 L84.431625,26.9211 C84.828125,26.3549 84.7595,25.5835 84.2676875,25.0971 L78.2649062,19.133 C77.7769062,18.6485 77.0105937,18.5801 76.440625,18.9715 L72.6147812,21.6163 C70.9754062,20.6967 69.2464375,19.9899 67.4545625,19.5073 L66.6425,14.9036 C66.5224062,14.2215 65.9276562,13.7256 65.2337812,13.7256 L56.7566875,13.7256 C56.0628125,13.7256 55.4699687,14.2215 55.3479687,14.9036 L54.534,19.5073 C52.7173437,19.9975 50.9864687,20.7043 49.3699687,21.6144 L45.5250625,18.9677 C44.9589062,18.5763 44.1906875,18.6466 43.7007812,19.133 L37.7189687,25.0971 C37.2290625,25.5854 37.1604375,26.3549 37.5588437,26.9192 L40.2256875,30.7287 C39.3030625,32.3494 38.5844062,34.0727 38.0811562,35.8758 L33.5061562,36.7042 C32.825625,36.8277 32.3319062,37.4186 32.3319062,38.1064 L32.3319062,46.5557 C32.3338125,47.253 32.8351562,47.8458 33.5195,47.9636 Z M35.1931875,39.3015 L39.4936875,38.5225 C40.054125,38.4218 40.5001875,38 40.6298125,37.4471 C41.136875,35.3058 41.9813437,33.2804 43.1403437,31.426 C43.4434375,30.9415 43.4281875,30.324 43.1003125,29.8566 L40.5897812,26.2713 L44.8826562,21.9925 L48.5007187,24.4834 C48.9696562,24.8064 49.5872812,24.8216 50.0695625,24.5195 C51.911,23.3738 53.93925,22.5473 56.0990313,22.059 C56.661375,21.9317 57.0902813,21.4814 57.1913125,20.9152 L57.957625,16.5775 L64.03475,16.5775 L64.8010625,20.9152 C64.9020938,21.4814 65.3329063,21.9336 65.89525,22.059 C68.0435938,22.5397 70.0165625,23.3453 71.926625,24.5214 C72.4089063,24.8197 73.024625,24.8026 73.4935625,24.4796 L77.0925625,21.9906 L81.4006875,26.2713 L78.8920625,29.8547 C78.568,30.3202 78.5489375,30.932 78.8463125,31.4146 C80.0224688,33.3241 80.8688438,35.3533 81.3625625,37.4452 C81.4921875,37.9981 81.9401563,38.4199 82.5005938,38.5206 L86.8201563,39.2996 L86.8201563,45.3587 L82.4910625,46.1054 C81.9210938,46.2042 81.4674063,46.6336 81.3396875,47.196 C80.8764688,49.2461 80.0377188,51.2791 78.8444063,53.2361 C78.5489375,53.7187 78.5699063,54.3305 78.8939688,54.7941 L81.4006875,58.3604 L77.0925625,62.6696 L73.497375,60.1692 C73.03225,59.8462 72.4203438,59.8253 71.9361563,60.1217 C69.9727187,61.3111 67.9959375,62.1186 65.89525,62.5898 C65.3329063,62.7152 64.9020938,63.1674 64.8010625,63.7336 L64.0366563,68.0523 L57.957625,68.0523 L57.1932187,63.7336 C57.0921875,63.1693 56.6632812,62.719 56.1009375,62.5917 C53.9888125,62.1148 51.95675,61.2845 50.0619375,60.1255 C49.57775,59.8272 48.9639375,59.8462 48.4988125,60.1711 L44.8845625,62.6734 L40.5897812,58.3661 L43.1003125,54.7979 C43.4281875,54.3305 43.4453437,53.7149 43.1460625,53.2304 C41.9660937,51.3285 41.12925,49.2993 40.6526875,47.1979 C40.526875,46.6374 40.0731875,46.2061 39.5032187,46.1073 L35.1931875,45.3606 L35.1931875,39.3015 Z" id="Shape"></path>
                    <path d="M60.9942813,60.1863 L60.9961875,60.1863 L60.9961875,60.1863 L61,60.1863 C71.0230625,60.1863 78.9225625,51.9707 78.9225625,42.3073 C78.9225625,32.623 70.9868438,24.4511 61.007625,24.4511 C50.9845625,24.4511 43.0717187,32.6382 43.0717187,42.3073 C43.0717187,52.0315 51.0436562,60.1825 60.9942813,60.1863 Z M56.5527188,27.9699 C55.8874375,29.2334 55.34225,30.7743 54.9190625,32.49 L49.631125,32.49 C52.4847812,29.2182 55.3479688,28.5361 56.5527188,27.9699 Z M65.4358438,56.6675 C66.101125,55.4021 66.6463125,53.8612 67.0695,52.1417 L72.3574375,52.1417 C69.235,55.7327 65.7008125,56.5307 65.4358438,56.6675 Z M60.9942813,27.3011 C60.9942813,27.3011 60.9961875,27.3011 60.9961875,27.3011 C61.846375,27.3011 63.1597812,29.0966 64.1148125,32.49 L57.87375,32.49 C58.8306875,29.0985 60.1440937,27.303 60.9942813,27.3011 Z M72.36125,32.4919 L67.0714063,32.4919 C66.6482188,30.7743 66.101125,29.2334 65.43775,27.9699 C68.1560625,28.8059 70.538875,30.4 72.36125,32.4919 Z M61.0095313,57.3325 C61.0095313,57.3325 61.007625,57.3325 61.007625,57.3325 C60.9961875,57.3325 60.9866563,57.3306 60.9752188,57.3306 C60.1250313,57.304 58.8249688,55.5123 57.8756562,52.1398 L64.1148125,52.1398 C63.1635937,55.5218 61.8597187,57.3154 61.0095313,57.3325 Z M56.5527188,56.6618 C53.8382188,55.822 51.4573125,54.2298 49.6368437,52.1417 L54.9209688,52.1417 C55.34225,53.8593 55.8874375,55.3983 56.5527188,56.6618 Z M57.240875,49.2917 C56.9606563,47.6691 56.7662188,45.8166 56.7033125,43.7323 L65.28525,43.7323 C65.2223438,45.8147 65.0279063,47.6691 64.7476875,49.2917 L57.240875,49.2917 Z M68.1465313,43.7323 L75.9850312,43.7323 C75.7963125,45.7235 75.2149062,47.6007 74.320875,49.2917 L67.6394688,49.2917 C67.9177813,47.5152 68.0893438,45.6342 68.1465313,43.7323 Z M75.983125,40.8823 L68.144625,40.8823 C68.0874375,38.9861 67.9177813,37.1127 67.6375625,35.34 L74.320875,35.34 C75.2149063,37.0272 75.7963125,38.8968 75.983125,40.8823 Z M64.7495938,35.3419 C65.0298125,36.9607 65.2223438,38.8075 65.28525,40.8842 L56.7033125,40.8842 C56.7643125,38.8094 56.9606563,36.9607 57.2389688,35.3419 L64.7495938,35.3419 Z M53.8439375,40.8823 L46.0054375,40.8823 C46.1941562,38.8968 46.7755625,37.0272 47.6657812,35.34 L54.3490937,35.34 C54.0707812,37.1127 53.8992187,38.988 53.8439375,40.8823 Z M53.8439375,43.7323 C53.901125,45.6342 54.0707812,47.5133 54.351,49.2917 L47.6695937,49.2917 C46.80225,47.652 46.19225,45.714 46.0054375,43.7323 L53.8439375,43.7323 L53.8439375,43.7323 Z" id="Shape"></path>
                    <path d="M65.6074063,86.2315 L56.3925937,86.2315 C55.6034062,86.2315 54.9629062,86.8699 54.9629062,87.6565 C54.9629062,88.4431 55.6034062,89.0815 56.3925937,89.0815 L65.6074063,89.0815 C66.3965938,89.0815 67.0370938,88.4431 67.0370938,87.6565 C67.0370938,86.8699 66.3985,86.2315 65.6074063,86.2315 Z" id="Path"></path>
                </g>
            </g>
        </g>
    </g>
</svg>