<?xml version="1.0" encoding="UTF-8"?>
<svg width="122px" height="95px" viewBox="0 0 122 95" version="1.1" xmlns="http://www.w3.org/2000/svg" xmlns:xlink="http://www.w3.org/1999/xlink">
    <!-- Generator: Sketch 55.1 (78136) - https://sketchapp.com -->
    <title>noun_Code Management_1857809 Copy@1.5x</title>
    <desc>Created with Sketch.</desc>
    <g id="Page-1" stroke="none" stroke-width="1" fill="none" fill-rule="evenodd">
        <g id="Chat-Home-Page-Copy" transform="translate(-715.000000, -1440.000000)" fill="#B3B3B3" fill-rule="nonzero">
            <g id="noun_Code-Management_1857809-Copy" transform="translate(715.000000, 1440.000000)">
                <g id="Group">
                    <path d="M108.29025,8.6184 L13.7307187,8.6184 C12.9415312,8.6184 12.3010312,9.2568 12.3010312,10.0434 C12.9300937,75.0006 10.96475,76.019 13.7307187,76.019 L108.29025,76.019 C109.079437,76.019 109.719937,75.3806 109.719937,74.594 L109.719937,10.0434 C109.719937,9.2568 109.079437,8.6184 108.29025,8.6184 Z M106.860562,73.169 L15.1604062,73.169 L15.1604062,11.4684 L106.860562,11.4684 L106.860562,73.169 Z" id="Shape"></path>
                    <path d="M120.570312,81.0331 L117.62325,81.0331 L117.62325,2.1451 C117.62325,1.3585 116.98275,0.7201 116.193562,0.7201 L5.8064375,0.7201 C5.01725,0.7201 4.37675,1.3585 4.37675,2.1451 L4.37675,81.0331 L1.4296875,81.0331 C0.6405,81.0331 0,81.6715 0,82.4581 C0,88.977 5.32225,94.2818 11.8625938,94.2818 L110.139313,94.2818 C116.679656,94.2818 122,88.977 122,82.4581 C122,81.6715 121.3595,81.0331 120.570312,81.0331 Z M7.236125,3.5701 L114.765781,3.5701 L114.765781,81.0331 L7.236125,81.0331 L7.236125,3.5701 Z M110.139313,91.4299 L11.8625938,91.4299 C7.3848125,91.4299 3.66,88.1543 2.97375,83.8812 C3.5341875,83.8812 126.826625,83.9477 119.028156,83.8812 C118.34,88.1562 114.615188,91.4299 110.139313,91.4299 Z" id="Shape"></path>
                    <path d="M42.7869299,45.7540373 L45.8197048,46.2805875 C46.141803,47.4650096 46.6154767,48.6115505 47.2331472,49.7075829 L45.4660285,52.2279524 C45.2032974,52.6029773 45.2462439,53.114375 45.5696051,53.4388915 L49.5333067,57.4277929 C49.8579311,57.7523094 50.3682356,57.7990297 50.7459114,57.5376487 L53.2961707,55.767329 C54.3849887,56.3772181 55.5306475,56.8469462 56.7142002,57.1689373 L57.2522936,60.2171197 C57.3318708,60.6691699 57.7259673,61 58.1857466,61 L63.8028853,61 C64.2626645,61 64.6554979,60.6704326 64.7363383,60.2171197 L65.2744316,57.1689373 C66.4415636,56.8519971 67.5859593,56.3810062 68.6886717,55.7660663 L71.2275628,57.536386 C71.6039755,57.797767 72.1155431,57.7535721 72.4414307,57.4277929 L76.4177636,53.4388915 C76.742388,53.114375 76.7865975,52.6029773 76.5226034,52.2279524 L74.7529584,49.7037948 C75.3756814,48.5900844 75.8493551,47.4435436 76.1676639,46.2805875 L79.2143332,45.7527746 C79.6677968,45.6744866 80,45.280521 80,44.8196318 L80,39.2043597 C80,38.7459959 79.6715862,38.3545557 79.2206488,38.2724796 L76.1765058,37.7219379 C75.8468289,36.545092 75.3693658,35.3998139 74.7529584,34.3037815 L76.5226034,31.7695222 C76.7853344,31.3932345 76.7398617,30.8805742 76.4139742,30.5573204 L72.4363781,26.5936732 C72.1130169,26.2716821 71.6052387,26.2262245 71.2275628,26.4863428 L68.6924611,28.2440354 C67.6061694,27.6328836 66.4605106,27.1631554 65.2731685,26.8424271 L64.7350751,23.7828803 C64.6554979,23.3295674 64.2614014,23 63.8016221,23 L58.1844834,23 C57.7247042,23 57.3318708,23.3295674 57.2510304,23.7828803 L56.711674,26.8424271 C55.5079112,27.1682063 54.3609892,27.6379345 53.2898551,28.2427726 L50.7421221,26.4838174 C50.3669725,26.2236991 49.8579311,26.2704194 49.5333067,26.5936732 L45.5696051,30.5573204 C45.2449807,30.8818369 45.199508,31.3932345 45.4635022,31.7682595 L47.2306209,34.2999934 C46.6192661,35.3770851 46.1430661,36.5223633 45.8095998,37.7206752 L42.778088,38.2712169 C42.3271506,38.353293 42,38.7459959 42,39.203097 L42,44.8183691 C42.0012631,45.2817837 42.3334663,45.6757493 42.7869299,45.7540373 Z M44,40.0095969 L46.8321825,39.4950539 C47.2012702,39.4285398 47.4950338,39.1499336 47.580401,38.7847335 C47.9143374,37.3703676 48.4704796,36.0325557 49.2337629,34.8076923 C49.4333715,34.4876716 49.4233283,34.0798022 49.2073995,33.7710763 L47.5540376,31.4029234 L50.3811985,28.5767016 L52.7639479,30.2219843 C53.0727763,30.4353315 53.4795259,30.4453713 53.7971421,30.245829 C55.0098586,29.4890743 56.3456043,28.9431567 57.7679725,28.620626 C58.1383155,28.5365422 58.4207806,28.2391112 58.4873168,27.8651262 L58.9919876,25 L62.994203,25 L63.4988738,27.8651262 C63.56541,28.2391112 63.8491305,28.5377971 64.2194735,28.620626 C65.6343093,28.9381367 66.9336484,29.4702495 68.1915593,30.247084 C68.5091755,30.4441163 68.9146697,30.4328215 69.2234981,30.2194744 L71.5936935,28.5754466 L74.4308976,31.4029234 L72.7787911,33.7698213 C72.5653731,34.0772922 72.5528191,34.4813967 72.7486615,34.8001624 C73.5232434,36.0614203 74.080641,37.4017422 74.4057896,38.7834785 C74.4911568,39.1486786 74.7861758,39.4272848 75.1552634,39.4937989 L78,40.0083419 L78,44.0104828 L75.1489864,44.5036911 C74.7736218,44.5689502 74.4748366,44.8525764 74.3907248,45.2240514 C74.0856626,46.5781781 73.5332866,47.9210099 72.7474061,49.2136424 C72.5528191,49.5324081 72.5666285,49.9365126 72.7800465,50.2427285 L74.4308976,52.5983316 L71.5936935,55.4446331 L69.2260089,53.7930754 C68.9196913,53.5797283 68.5167079,53.5659235 68.1978363,53.7617009 C66.9047742,54.5473202 65.6029243,55.080688 64.2194735,55.3919238 C63.8491305,55.4747527 63.56541,55.7734387 63.4988738,56.1474236 L62.9954584,59 L58.9919876,59 L58.4885722,56.1474236 C58.422036,55.7746936 58.1395709,55.4772627 57.7692279,55.3931788 C56.3782447,55.0781781 55.0399882,54.5297505 53.7921205,53.7642108 C53.4732489,53.5671785 53.0690101,53.5797283 52.7626925,53.7943304 L50.3824539,55.4471431 L47.5540376,52.6020966 L49.2073995,50.2452384 C49.4233283,49.9365126 49.4346269,49.5298981 49.2375291,49.2098775 C48.4604364,47.9536395 47.9093158,46.6133176 47.5954658,45.2253064 C47.5126094,44.8550864 47.2138242,44.5702052 46.8384596,44.5049461 L44,44.0117378 L44,40.0095969 Z" id="Shape"></path>
                    <path d="M65.6074063,86.2315 L56.3925937,86.2315 C55.6034062,86.2315 54.9629062,86.8699 54.9629062,87.6565 C54.9629062,88.4431 55.6034062,89.0815 56.3925937,89.0815 L65.6074063,89.0815 C66.3965938,89.0815 67.0370938,88.4431 67.0370938,87.6565 C67.0370938,86.8699 66.3985,86.2315 65.6074063,86.2315 Z" id="Path"></path>
                </g>
            </g>
        </g>
    </g>
</svg>