<?xml version="1.0" encoding="UTF-8"?>
<svg width="107px" height="96px" viewBox="0 0 107 96" version="1.1" xmlns="http://www.w3.org/2000/svg" xmlns:xlink="http://www.w3.org/1999/xlink">
    <!-- Generator: Sketch 55.1 (78136) - https://sketchapp.com -->
    <title>noun_Doctor_1303431@1.5x</title>
    <desc>Created with Sketch.</desc>
    <g id="Page-1" stroke="none" stroke-width="1" fill="none" fill-rule="evenodd">
        <g id="Chat-Home-Page-Copy" transform="translate(-715.000000, -692.000000)" fill="#B3B3B3" fill-rule="nonzero">
            <g id="noun_Doctor_1303431" transform="translate(715.000000, 692.000000)">
                <path d="M14.3079294,59.4273151 C12.1252161,62.6108212 2.08827683,82.0572173 0.516546163,93.9898306 C0.445707598,94.4945868 0.60509437,95.0037707 0.941577556,95.3889794 C1.27806074,95.774188 1.76507588,95.9955723 2.27422807,95.9955723 L15.6981362,95.9955723 C16.3179737,95.9955723 16.8979644,95.6679236 17.216738,95.1410289 C18.7043478,92.6703803 20.4930216,90.2085869 21.4006407,89.3230498 C22.2595583,90.2838576 23.809152,92.6792356 25.0709639,95.0569029 C25.3764552,95.6369298 25.9830104,96 26.6382672,96 L80.0682552,96 C80.7102297,96 81.2990752,95.6546405 81.6134214,95.0923244 C82.9637815,92.688091 84.6019233,90.2750022 85.5006876,89.3274775 C86.4525809,90.2440084 88.223545,92.6792356 89.680163,95.1321736 C89.9989365,95.6679236 90.5789273,96 91.2031922,96 L104.728931,96 C105.238083,96 105.725098,95.7786157 106.057154,95.3978347 C106.393637,95.0126261 106.548596,94.5078699 106.486613,94.0031137 C106.074863,90.7886138 105.016712,86.7859858 103.338724,82.0970665 C103.334296,82.0926388 103.334296,82.0882111 103.334296,82.0882111 C100.243964,73.4763622 96.2061658,65.6703521 95.0417569,63.4830753 C95.0417569,63.4786476 95.0373295,63.4786476 95.0373295,63.4786476 C94.0721541,61.6677241 93.284075,60.3217076 92.8147695,59.6309886 C92.7262213,59.5025857 92.6243909,59.3830382 92.5092782,59.2812014 L92.5048508,59.2767738 C92.5004234,59.2767738 92.5004234,59.2767738 92.5004234,59.2723461 C92.3188996,59.1173771 92.1063839,58.9978296 91.8805859,58.9314143 C87.3424903,57.4348565 74.595976,52.8300632 68.3134807,50.5320943 C71.877546,45.9627225 74.5561293,40.5963673 76.3713675,34.1009522 C77.6907358,29.3987498 78.1290494,25.5776569 77.757147,21.9646653 C77.757147,21.9336715 77.7527195,21.9026777 77.7482921,21.8716839 C77.6951632,21.3802108 77.6287521,20.8887377 77.5446313,20.4061199 C75.3442083,7.5348372 63.828514,-1.18770387 50.7632261,0.131746504 C44.5559968,0.760477891 38.6631137,3.98383317 34.5943236,8.99154584 C30.4856868,14.0391077 28.5951825,20.264434 29.2548667,26.5118987 C30.2067599,35.5355224 33.509608,43.5496337 38.8712019,50.465679 C31.0966694,52.9938876 18.9965569,57.1603399 15.0871536,58.8162944 C14.7639526,58.9314143 14.5027354,59.1527986 14.3079294,59.4273151 Z M37.3304631,11.2142441 C40.8104077,6.93267193 45.8355184,4.17422366 51.1085641,3.64732905 C62.2125093,2.46513693 72.0679247,9.90807681 74.0159852,20.8400331 C67.830893,22.5491198 61.7476312,21.8495455 55.9388688,18.7545931 C51.9719091,16.6470146 47.9828124,15.5932254 43.9848609,15.5932254 C40.5314808,15.5932254 37.0736733,16.3813535 33.6335755,17.9487543 C34.4172271,15.5489485 35.6613294,13.2686903 37.3304631,11.2142441 Z M32.7303838,22.3985785 C40.004619,18.2099877 47.0574837,18.050591 54.2785899,21.884967 C60.720472,25.3031404 67.4678453,26.1576838 74.3304578,24.4176033 C74.3391862,26.9945164 73.8831629,29.8060969 72.9534067,33.1401443 C71.0806122,39.8170946 68.3179081,45.2277266 64.5014804,49.690834 C64.4926256,49.6996893 64.4926256,49.7129724 64.4837708,49.7218278 C64.4749159,49.7306831 64.4660611,49.7351108 64.4572063,49.7439662 C61.8804535,52.9938876 57.3157934,55.3538441 53.6011961,55.3538441 C50.0415582,55.3538441 45.5743012,53.1134351 42.9709839,50.0273381 C42.9355646,49.9874889 42.8912905,49.9697782 42.8558712,49.9343567 C37.1223749,43.1954188 33.7221237,35.1901629 32.7658031,26.12669 C32.6329808,24.8780826 32.6196985,23.6294752 32.7303838,22.3985785 Z M32.1149738,68.335819 C33.5450273,68.335819 34.7094362,69.5003003 34.7094362,70.9304429 C34.7094362,72.3605854 33.5450273,73.5250667 32.1149738,73.5250667 C30.6849202,73.5250667 29.5205113,72.3605854 29.5205113,70.9304429 C29.5205113,69.5003003 30.6849202,68.335819 32.1149738,68.335819 Z M30.3440096,57.0363647 L30.3440096,65.0814699 C27.8248131,65.8474595 25.978583,68.1631392 25.978583,70.9304429 C25.978583,74.3176225 28.7324323,77.0716431 32.1194012,77.0716431 C35.5063701,77.0716431 38.2602193,74.3176225 38.2602193,70.9304429 C38.2602193,68.1631392 36.4095618,65.8474595 33.8947927,65.0814699 L33.8947927,55.8320342 C36.6353597,54.9066479 39.2253948,54.0521045 41.3771162,53.3613855 C44.7065288,56.6732945 49.4040111,58.8959928 53.610051,58.8959928 C57.7895263,58.8959928 62.6065488,56.708716 65.9226791,53.4189454 C67.4899824,53.9945446 70.0490256,54.9243586 72.9843986,55.9914309 L72.9843986,64.4571662 C68.4905771,65.1744513 67.3704423,67.1270607 67.2907489,68.7254553 L67.2553296,69.3276206 C67.1047977,72.125918 67.0560962,73.6401866 67.7511996,74.804668 C68.0832554,75.3669841 68.8447699,76.3853518 70.2128397,76.9388125 C70.4297828,77.0273662 70.6555808,77.0672154 70.8725239,77.0672154 C71.5720547,77.0672154 72.2361663,76.6465853 72.5150931,75.9558663 C72.8825682,75.0526184 72.4398271,74.0165399 71.532208,73.649042 C71.1160314,73.4807899 70.8813787,73.1354304 70.8016853,73.0070275 C70.6201615,72.5819697 70.7264193,70.5850834 70.7884031,69.5180111 L70.819395,68.9202735 C70.9079432,68.7387384 71.8908283,68.0347363 74.8793302,67.7956413 C77.8634048,68.039164 78.8507173,68.7431661 78.9348381,68.9247012 L78.9702574,69.5091557 C79.0322411,70.5806557 79.138499,72.577542 78.9525478,73.0025998 C78.8861366,73.1088643 78.6559113,73.4719345 78.222025,73.649042 C77.3144059,74.0121122 76.8760923,75.043763 77.2391399,75.9558663 C77.5180668,76.6465853 78.1821784,77.0672154 78.8817092,77.0672154 C79.1030797,77.0672154 79.3288776,77.0229386 79.5413933,76.9388125 C80.9271728,76.3809241 81.6798325,75.353701 81.9986061,74.817951 C82.7025643,73.6401866 82.6538628,72.1303457 82.5033308,69.3187652 L82.4679116,68.7387384 C82.3882182,67.0960669 81.210527,65.1168914 76.5263269,64.4261724 L76.5263269,57.2710321 C81.6754051,59.1262324 87.1609665,61.0788419 90.1893152,62.0927819 C90.6232014,62.7835009 91.2076196,63.8328625 91.9071504,65.1390298 C93.0449949,67.2687467 96.9853901,74.888794 99.9960291,83.2792586 L99.9960291,83.2836863 C101.253414,86.7859858 102.138896,89.8587998 102.64362,92.448996 L92.2037869,92.448996 C87.9977471,85.599366 86.1470896,85.5329507 85.460841,85.5108123 C84.7347457,85.5108123 83.0700394,85.5108123 79.0455234,92.448996 L27.6875634,92.448996 C23.5656444,84.9617792 21.93193,85.3381325 21.3209474,85.51524 C20.6656906,85.5373784 18.9655651,85.5949383 14.7019689,92.448996 L4.35953834,92.448996 C6.51568717,81.5214674 14.7108237,65.4799616 16.9555208,61.8581146 C19.5898299,60.7866146 24.9160045,58.8959928 30.3440096,57.0363647 Z" id="Shape"></path>
            </g>
        </g>
    </g>
</svg>