<?xml version="1.0" encoding="UTF-8"?>
<svg width="95px" height="95px" viewBox="0 0 95 95" version="1.1" xmlns="http://www.w3.org/2000/svg" xmlns:xlink="http://www.w3.org/1999/xlink">
    <!-- Generator: Sketch 55.1 (78136) - https://sketchapp.com -->
    <title>noun_clock_730902@1.5x</title>
    <desc>Created with Sketch.</desc>
    <g id="Page-1" stroke="none" stroke-width="1" fill="none" fill-rule="evenodd">
        <g id="Chat-Home-Page-Copy" transform="translate(-286.000000, -1063.000000)" fill="#B3B3B3" fill-rule="nonzero">
            <g id="noun_clock_730902" transform="translate(285.000000, 1063.000000)">
                <g id="Group" transform="translate(0.500000, 0.000000)">
                    <path d="M48,94.2083333 C74.0571429,94.2083333 95.2,73.2857143 95.2,47.5 C95.2,21.7142857 74.0571429,0.791666667 48,0.791666667 C21.9428571,0.791666667 0.8,21.7142857 0.8,47.5 C0.8,73.2857143 21.9428571,94.2083333 48,94.2083333 Z M48,7.35119048 C70.4,7.35119048 88.5714286,25.3333333 88.5714286,47.5 C88.5714286,69.6666667 70.4,87.6488095 48,87.6488095 C25.6,87.6488095 7.42857143,69.6666667 7.42857143,47.5 C7.42857143,25.3333333 25.6,7.35119048 48,7.35119048 Z" id="Shape"></path>
                    <path d="M43.7714286,52.3630952 L58.9714286,63.672619 C59.5428571,64.125 60.2285714,64.3511905 60.9142857,64.3511905 C61.9428571,64.3511905 62.9714286,63.8988095 63.5428571,62.9940476 C64.6857143,61.5238095 64.3428571,59.4880952 62.8571429,58.3571429 L49.1428571,48.1785714 L49.1428571,23.4107143 C49.1428571,21.6011905 47.6571429,20.1309524 45.8285714,20.1309524 C44,20.1309524 42.5142857,21.6011905 42.5142857,23.4107143 L42.5142857,49.7619048 C42.5142857,50.7797619 42.9714286,51.797619 43.7714286,52.3630952 Z" id="Path"></path>
                </g>
            </g>
        </g>
    </g>
</svg>